<?xml version="1.0" encoding="utf-8"?>
<!-- Generator: Adobe Illustrator 18.1.1, SVG Export Plug-In . SVG Version: 6.00 Build 0)  -->
<svg version="1.1" id="MyCase" xmlns="http://www.w3.org/2000/svg" xmlns:xlink="http://www.w3.org/1999/xlink" x="0px" y="0px"
	 viewBox="52.4 677.3 612 129.7" enable-background="new 52.4 677.3 612 129.7" xml:space="preserve">
<path id="logo" fill="#FFFFFF" d="M158.6,696.9c2.2,13.4-6.2,21.8-18.6,28.4c-1.3,0.7-2.2,2.2-2.2,3.7c0.6,23.8,1,47.3-15.1,62.2
	c-1,1-2.5-0.1-2.2-1.3c2.5-8,2.3-20.9-1.8-28.4c-0.5-1-1.9-0.7-2.2,0.2c-4.5,13.5-17.1,30.2-27.5,32.8c-0.4,0.1-0.4,0.5,0,0.5
	c16.5,4.3,49,5.2,66-12.3c9.8-9.9,14.6-25.1,14.6-45.5c0-17.4-3.4-30.9-10.6-40.7C158.8,696.4,158.6,696.6,158.6,696.9z
	 M101.1,736.7c-0.2-2.2-1.8-4-3.9-4.3c-9.3-1.2-18.8,1-26.2,6.5c-1.3,1.1-3.3-0.6-2.3-2.2c2.7-4.3,15.2-18.6,33.7-22.8
	c22.6-5.2,44.4-3.1,49.6-17.3c1.3-3.6,0-7.6-3.1-9.9c-9.4-6.4-22.1-9.5-38-9.5c-43.7,0-61.2,24.7-58.1,67.9c0,0.2,0.2,0.4,0.4,0.4
	c3.4-0.5,7-0.7,9.9-0.8c0.1,0,0.2-0.1,0.2-0.2c0.1-1.7,1.6-3,3.4-3h4c1.6,0,3.3,1.2,3.4,3.5c0,0.1,0.1,0.2,0.2,0.4
	c4.8,0.5,8.9,1.4,8.8,1.4c2.7,0.5,2.3,3.3,2.3,4.7c0,5.7-1.2,11.5-3.5,16.8c-0.5,1.3-1.9,1.9-3.1,1.7l-21.5-4.6
	c-0.2,0-0.5,0.2-0.4,0.5c3.6,10.4,9.7,18.1,18.3,23.4c4.7,2.9,10.9,1.4,13.8-3.1C96.1,774.4,100.5,757.8,101.1,736.7z M101,694.3
	c1-7.1,7.6-12.1,14.7-11.1s12.1,7.6,11.1,14.7c-1,7.1-7.6,12.1-14.7,11.1S100.1,701.4,101,694.3z M71.6,744.8
	c0.1-0.1,0.1-0.1,0.1-0.2c-0.1-0.7-0.6-1.1-1.2-1.1c-3.3,0-4.7-0.4-5.1,0.7c0,0.1,0,0.2,0,0.2c0.1,0.1,0.1,0.1,0.2,0.1
	c1.8,0.1,3.7,0.2,5.7,0.4C71.5,744.9,71.6,744.9,71.6,744.8z M280.4,699.3c-8,0-15.9,3-22.2,8.8c-0.7,0.7-2.1,0.6-2.7-0.2
	c-8.7-10.6-26.2-12.3-37.5-0.1V703c0-1.2-1-2.2-2.2-2.2h-12.8c-1,0-1.7,0.7-1.7,1.7v70c0,1,0.7,1.7,1.7,1.7h13.4
	c1,0,1.7-0.7,1.7-1.7v-35.2c0-13.9,4.9-22.8,16.6-22.8c7.7,0,11.9,5.7,11.9,15.1v42.8c0,1,0.7,1.7,1.7,1.7h13.5c1,0,1.7-0.7,1.7-1.7
	v-35.2c0-13.9,5.2-22.8,16.6-22.8c8.1,0,11.9,5.7,11.9,15.2v42.7c0,1,0.7,1.7,1.7,1.7h13.5c1,0,1.7-0.7,1.7-1.7v-44.5
	c0-3.9-0.7-7.5-2.2-10.9C302.6,706.6,292.4,699.2,280.4,699.3z M571.6,732l-15.1-3.9c-4.7-1.3-6.8-3.5-6.8-7c0-4.1,4.1-6.6,11-6.6
	c4.6,0,10.6,0.6,14.6,1.8l6.6,1.8c1.1,0.4,1.8-0.1,2.2-1.2l3.1-11.3c0.4-1.1-0.1-1.8-1.2-2.2l-6.6-1.7c-4.9-1.3-11.9-2.4-18.7-2.4
	c-17.6,0-27.6,8.2-27.6,21.8c0,10.9,5.9,17.4,18.5,20.5l15.2,3.9c4.9,1.4,7.1,3.9,7.1,7.4c0,4.7-4.2,7.5-11.6,7.5
	c-5.5,0-13.5-1-19.4-2.5l-5.4-1.4c-1-0.4-1.7,0.1-2.1,1.1l-3.5,11.3c-0.4,1.1,0.1,1.8,1.2,2.2l5.9,1.7c7.4,2.2,15.2,3.1,23,3.1
	c17.7,0,28.4-8.6,28.4-22.8C590.7,742.2,584.8,735.4,571.6,732z M656.7,758.6c-0.4-1.1-1.1-1.4-2.2-1.2c0,0-9.9,3.1-18.6,3.1
	c-9.5,0-15.6-4.9-17.3-13c-0.5-2.2-0.4-3.6-0.4-3.6l19.8,0.1c3.9,0,7.7-0.5,11.3-1.6c10-3.1,15-9.3,15-18.9c0-15-11-24-29.1-24
	c-22,0-35,14.6-35,38.2c0,23.4,12.8,38.2,35.7,38.2c4.8,0,9.9-0.6,15.4-2.1l7-1.8c1.1-0.4,1.4-1.1,1.2-2.2L656.7,758.6z
	 M634.8,714.5c8.2,0,12.8,3.1,12.8,9.2c0,3.1-1.9,5.4-5.4,6.5c-1.4,0.5-3,0.6-4.5,0.6h-19.7C620.1,719.6,625.8,714.5,634.8,714.5z
	 M386.8,700.9h-14c-1,0-1.4,0.5-2.1,1.2l-2.7,6.4l-15.7,38.1c-0.4,0.8-1.6,0.8-1.9,0l-18.6-44.4c-0.5-0.7-1.1-1.2-2.1-1.2h-14.1
	c-1.2,0-1.8,0.7-1.3,2.1l3.9,9.4l16.2,39.3c5.4,14.2,7,23.3,2.9,34l-8.1,19.1c-0.5,1.2,0.1,2.1,1.3,2.1h13.9c1,0,1.4-0.5,1.8-1.3
	l41.6-102.4C388.6,701.7,388.1,700.9,386.8,700.9z M445.2,758.4c-0.4-1-1.1-1.3-2.2-1.1l-4.9,1.4c-3.9,1.1-8.1,1.7-11.2,1.7
	c-12.8,0-19.4-8.6-19.4-23.3c0-14.2,6.3-22.8,19.7-22.8c2.8,0,6.4,0.5,10.1,1.7l5.2,1.3c1,0.4,1.7-0.1,2.1-1.1L448,705
	c0.4-1.1-0.1-1.8-1.2-2.2l-6.5-1.8c-4.7-1.3-9-1.8-13-1.8c-16.8,0-27.9,7.4-33.1,19.7c-2.2,5.3-3.3,11.5-3.3,18.3
	c0,23.6,12.7,38.4,35.7,38.4c4.7,0,9.5-0.7,14.1-2.1l6.6-2.1c1.1-0.4,1.4-1.1,1.2-2.2L445.2,758.4z M487.3,699.3
	c-6.3,0-11.3,0.7-16.5,2.2l-5.7,1.7c-1.1,0.4-1.4,1.1-1.2,2.2l3.3,11.2c0.4,1.1,1.1,1.4,2.2,1.2l5.4-1.7c3.6-1.1,7.4-1.4,11.7-1.4
	c11.2,0,17,4.9,17,14.2v1h-18.8c-17.7,0-27.5,9-27.5,23.3s9.3,22.8,26.2,22.8c11.9,0,17.4-4.7,20.3-7.5v3.7c0,1.2,1,2.2,2.2,2.2
	h12.4c1.2,0,2.2-1,2.2-2.2v-43.8C520.2,709.9,507.7,699.3,487.3,699.3z M485.1,761c-7.4,0-11.3-3.6-11.3-9.5c0-5.2,3.5-8.6,10.9-8.6
	h18.8l0.1,1.1C503.6,755.2,497.1,761,485.1,761z"/>
</svg>
