<?xml version="1.0" encoding="utf-8"?>
<!-- Generator: Adobe Illustrator 18.1.1, SVG Export Plug-In . SVG Version: 6.00 Build 0)  -->
<svg version="1.1" id="MyCase" xmlns="http://www.w3.org/2000/svg" xmlns:xlink="http://www.w3.org/1999/xlink" x="0px" y="0px"
	 viewBox="-82.4 1731.8 860.1 238.8" enable-background="new -82.4 1731.8 860.1 238.8" xml:space="preserve">
<path fill="#B3B3B3" d="M687.1,1939.5c0.9-2.9,1.4-6,1.4-9.4c0-3.4-0.5-6.5-1.4-9.5c-1-2.9-2.4-5.5-4.3-7.6c-1.9-2.2-4.2-3.9-7-5.1
	c-2.7-1.2-6-1.9-9.6-1.9c-3.6,0-6.8,0.6-9.6,1.9c-2.8,1.2-5.1,2.9-7,5.1c-1.9,2.2-3.3,4.7-4.3,7.6c-1,2.9-1.4,6.1-1.4,9.5
	c0,3.4,0.5,6.5,1.4,9.4c0.9,2.9,2.4,5.4,4.3,7.6c1.9,2.2,4.2,3.9,7,5.1c2.8,1.2,6,1.8,9.6,1.8c3.7,0,6.9-0.6,9.6-1.8
	c2.8-1.2,5.1-2.9,7-5.1C684.7,1945,686.2,1942.4,687.1,1939.5z M679.4,1937.5c-0.7,2.2-1.8,4-3.1,5.4c-1.3,1.5-2.8,2.6-4.6,3.3
	c-1.7,0.8-3.6,1.2-5.5,1.2c-1.9,0-3.8-0.4-5.5-1.2c-1.7-0.8-3.3-1.9-4.6-3.3c-1.3-1.4-2.3-3.3-3.1-5.4c-0.7-2.2-1.1-4.6-1.1-7.4
	c0-2.8,0.4-5.2,1.1-7.4c0.7-2.2,1.8-4,3.1-5.5c1.3-1.5,2.8-2.6,4.6-3.4c1.7-0.8,3.6-1.2,5.5-1.2c2,0,3.8,0.4,5.5,1.2
	c1.7,0.8,3.3,1.9,4.6,3.4c1.3,1.5,2.3,3.3,3.1,5.5c0.7,2.2,1.1,4.6,1.1,7.4C680.5,1932.9,680.2,1935.4,679.4,1937.5z"/>
<path fill="#B3B3B3" d="M568.5,1913.3c-1.8-2.2-3.9-4-6.6-5.3c-2.6-1.3-5.7-1.9-9.3-1.9c-3.2,0-6.1,0.6-8.8,1.7
	c-2.7,1.2-4.4,3.6-4.4,3.6c-0.8,1.1-1.5,2-1.5,2c0,0-0.1-1.1-0.1-2.4v-1.3c0-1.3-1.1-2.4-2.5-2.4h-2.6c-1.3,0-2.4,1.1-2.4,2.4v58.6
	c0,1.3,1.1,2.5,2.4,2.5h2.6c1.4,0,2.5-1.1,2.5-2.5v-18.8c0-1.3,0-2.5,0.1-2.5c0,0,0.7,0.9,1.5,2c0,0,0.4,0.5,1.6,1.5
	c1.2,0.9,2.5,1.6,3.9,2.2c1.4,0.5,2.7,0.9,4.1,1.2c1.4,0.2,2.7,0.4,3.8,0.4c3.5,0,6.6-0.6,9.2-1.9c2.6-1.2,4.8-2.9,6.6-5.1
	c1.7-2.2,3-4.7,3.9-7.6c0.9-2.9,1.3-6,1.3-9.2c0-3.3-0.4-6.3-1.3-9.2C571.6,1918.1,570.2,1915.5,568.5,1913.3z M565.1,1936.3
	c-0.5,2.1-1.2,4-2.3,5.7c-1.1,1.7-2.5,3-4.2,4c-1.8,1-3.9,1.5-6.5,1.5c-2.6,0-4.8-0.5-6.7-1.5c-1.8-1-3.3-2.3-4.5-3.9
	c-1.2-1.6-2-3.4-2.5-5.5c-0.5-2.1-0.8-4.3-0.8-6.5c0-2.1,0.3-4.2,0.8-6.3c0.5-2.1,1.3-3.9,2.4-5.5c1.1-1.6,2.6-2.9,4.4-4
	c1.8-1,3.9-1.5,6.5-1.5c2.4,0,4.5,0.5,6.4,1.4c1.8,0.9,3.3,2.2,4.4,3.8c1.2,1.6,2,3.4,2.6,5.5c0.6,2,0.8,4.1,0.8,6.3
	C565.8,1931.9,565.5,1934.1,565.1,1936.3z"/>
<path fill="#B3B3B3" d="M695.1,1953.1h2.7c1.3,0,2.4-1.1,2.4-2.5V1892c0-1.3-1.1-2.4-2.4-2.4h-2.7c-1.3,0-2.4,1.1-2.4,2.4v58.6
	C692.7,1952,693.8,1953.1,695.1,1953.1z"/>
<path fill="#B3B3B3" d="M623,1913.8h2.8c1.4,0,2.5,1.1,2.5,2.5v34.4c0,1.3,1.1,2.5,2.4,2.5h2.6c1.3,0,2.4-1.1,2.4-2.5v-34.4
	c0-1.3,1.1-2.5,2.4-2.5h4c1.3,0,2.4-1.1,2.4-2.4v-1.8c0-1.3-1.1-2.5-2.4-2.5h-4c-1.3,0-2.4-1.1-2.4-2.4v-1.5c0-1.3,0.2-3.5,0.4-4.9
	c0,0,0.1-1,1.2-1.7c1-0.7,2.4-1.1,4.3-1.1c0.7,0,1.4,0,2.1,0.1c0.8,0.1,0.8,0.1,0.8,0.1c0.8,0.2,1.4-0.7,1.4-2.1v-1.7
	c0-1.3-0.7-2.6-1.5-2.9c0,0,0,0-0.9-0.1c-0.9-0.1-1.7-0.2-2.4-0.2c-4.2,0-7.3,1-9.5,2.9c-2.2,1.9-2.9,6.1-2.9,6.1
	c-0.2,1.3-0.4,3.5-0.4,4.9v2c0,1.3-1.1,2.4-2.5,2.4H623c-1.3,0-2.4,1.1-2.4,2.5v1.8C620.6,1912.7,621.7,1913.8,623,1913.8z"/>
<path fill="#B3B3B3" d="M707.6,1953.1h2.7c1.3,0,2.4-1.1,2.4-2.5v-41.1c0-1.3-1.1-2.4-2.4-2.4h-2.7c-1.4,0-2.4,1.1-2.4,2.4v41.1
	C705.1,1952,706.2,1953.1,707.6,1953.1z"/>
<path fill="#B3B3B3" d="M761.2,1930.1c0-3.4-0.5-6.5-1.4-9.5c-1-2.9-2.4-5.5-4.3-7.6c-1.9-2.2-4.2-3.9-7-5.1c-2.8-1.2-6-1.9-9.6-1.9
	c-3.6,0-6.8,0.6-9.6,1.9c-2.8,1.2-5.1,2.9-7,5.1c-1.9,2.2-3.3,4.7-4.3,7.6c-0.9,2.9-1.4,6.1-1.4,9.5c0,3.4,0.5,6.5,1.4,9.4
	c0.9,2.9,2.4,5.4,4.3,7.6c1.9,2.2,4.2,3.9,7,5.1c2.8,1.2,6,1.8,9.6,1.8c3.7,0,6.9-0.6,9.6-1.8c2.8-1.2,5.1-2.9,7-5.1
	c1.9-2.2,3.3-4.7,4.3-7.6C760.7,1936.6,761.2,1933.5,761.2,1930.1z M752,1937.5c-0.7,2.2-1.8,4-3.1,5.4c-1.3,1.5-2.8,2.6-4.6,3.3
	c-1.7,0.8-3.6,1.2-5.5,1.2s-3.8-0.4-5.5-1.2c-1.7-0.8-3.3-1.9-4.6-3.3c-1.3-1.4-2.3-3.3-3.1-5.4c-0.7-2.2-1.1-4.6-1.1-7.4
	c0-2.8,0.4-5.2,1.1-7.4c0.7-2.2,1.8-4,3.1-5.5c1.3-1.5,2.8-2.6,4.6-3.4c1.7-0.8,3.6-1.2,5.5-1.2s3.8,0.4,5.5,1.2
	c1.7,0.8,3.3,1.9,4.6,3.4c1.3,1.5,2.3,3.3,3.1,5.5c0.7,2.2,1.1,4.6,1.1,7.4C753.2,1932.9,752.8,1935.4,752,1937.5z"/>
<path fill="#B3B3B3" d="M621.4,1930.2c0-3.3-0.5-6.3-1.3-9.2c-0.9-2.9-2.2-5.5-4-7.7c-1.8-2.2-3.9-4-6.6-5.3
	c-2.6-1.3-5.7-1.9-9.3-1.9c-3.2,0-6.1,0.6-8.8,1.7c-2.7,1.2-4.4,3.6-4.4,3.6c-0.8,1.1-1.5,2-1.5,2c0,0-0.1-1.1-0.1-2.4v-1.3
	c0-1.3-1.1-2.4-2.5-2.4h-2.6c-1.3,0-2.5,1.1-2.5,2.4v58.6c0,1.3,1.1,2.5,2.5,2.5h2.6c1.4,0,2.5-1.1,2.5-2.5v-18.8
	c0-1.3,0-2.5,0.1-2.5c0,0,0.7,0.9,1.5,2c0,0,0.4,0.5,1.6,1.5c1.2,0.9,2.5,1.6,3.9,2.2c1.4,0.5,2.7,0.9,4.1,1.2
	c1.4,0.2,2.7,0.4,3.8,0.4c3.5,0,6.6-0.6,9.2-1.9c2.6-1.2,4.8-2.9,6.6-5.1c1.7-2.2,3-4.7,3.9-7.6
	C621,1936.5,621.4,1933.5,621.4,1930.2z M612.7,1936.3c-0.5,2.1-1.2,4-2.3,5.7c-1.1,1.7-2.5,3-4.2,4c-1.7,1-3.9,1.5-6.5,1.5
	c-2.6,0-4.8-0.5-6.7-1.5c-1.8-1-3.3-2.3-4.5-3.9c-1.2-1.6-2-3.4-2.5-5.5c-0.5-2.1-0.8-4.3-0.8-6.5c0-2.1,0.3-4.2,0.8-6.3
	c0.5-2.1,1.3-3.9,2.4-5.5c1.1-1.6,2.6-2.9,4.4-4c1.8-1,3.9-1.5,6.5-1.5c2.4,0,4.5,0.5,6.3,1.4c1.8,0.9,3.3,2.2,4.5,3.8
	c1.1,1.6,2,3.4,2.6,5.5c0.6,2,0.9,4.1,0.9,6.3C613.4,1931.9,613.2,1934.1,612.7,1936.3z"/>
<polygon fill="#B3B3B3" points="761.8,1916.4 763.1,1916.4 763.1,1907.4 766.5,1907.4 766.5,1906.3 758.4,1906.3 758.4,1907.4 
	761.8,1907.4 "/>
<polygon fill="#B3B3B3" points="772.7,1914.8 769.5,1906.3 767.6,1906.3 767.6,1916.4 768.9,1916.4 768.9,1908 768.9,1908 
	772.1,1916.4 773.3,1916.4 776.4,1908 776.4,1908 776.4,1916.4 777.7,1916.4 777.7,1906.3 775.9,1906.3 "/>
<path fill="#B3B3B3" d="M495.3,1930.9c-8.6,1.2-15.1,2.6-15.1,8.9c0,4,4.1,8.2,11.6,8.2c0.1,0,15.1-0.6,15.1-14.9v-4.3
	c-2,0.9-5.9,1.5-10.1,2C496.2,1930.8,495.7,1930.8,495.3,1930.9z"/>
<path fill="#B3B3B3" d="M493.2,1897.1c-17.5,0-31.7,14.2-31.7,31.6c0,17.5,14.2,31.7,31.7,31.7c17.5,0,31.7-14.2,31.7-31.7
	C524.8,1911.3,510.6,1897.1,493.2,1897.1z M513.2,1941.2c-3.9,11.1-14,13.4-21.8,13.4c-11.4,0-19.1-7.2-19.1-14
	c0-1.2,0.5-11.9,18.1-14.2c3.7-0.5,6.4-0.8,8.4-1c5-0.6,6-0.7,7.1-1.5c0.8-0.6,1.7-1.9,1.7-3.8c0-6.7-3.6-9.6-12.1-9.6
	c-9.7,0-12.1,5.1-13,9.5c-0.4,1.9-2.3,2.7-3.9,2.5c-2.5-0.2-3.6-2.1-3.8-3.1l0-0.1l0-0.1c0.4-3.8,3.1-16.3,21.5-16.3
	c8.3,0,17.9,4.4,17.9,16.7c0,0.9,0,1.9,0,3.1C514.1,1928.9,514.2,1938.2,513.2,1941.2z"/>
<path id="MAC_1_" fill="#003F69" d="M-20.6,1807.8c-12.9-1.7-25.9,1.3-36,9c-1.9,1.5-4.5-0.9-3.2-2.9c3.7-6,21-25.7,46.4-31.6
	c31.1-7.1,61.3-4.3,68.5-23.8c1.8-5,0-10.5-4.4-13.5c-12.9-8.8-30.4-13.2-52.3-13.2c-60.2,0-84.3,34.2-80.2,93.7
	c0,0.2,0.2,0.4,0.5,0.4c4.7-0.7,9.6-1.1,13.5-1.2c0.2,0,0.3-0.2,0.4-0.4c0.2-2.4,2.2-4.2,4.6-4.2h5.5c2.3,0,4.5,1.5,4.6,4.8
	c0,0.2,0.2,0.4,0.3,0.4c6.7,0.8,12.2,2,12.1,2c3.7,0.8,3.1,4.5,3.1,6.5c0,7.9-1.6,15.8-4.8,23c-0.7,1.7-2.6,2.7-4.4,2.3l-29.6-5.9
	c-0.3-0.1-0.6,0.2-0.5,0.5c5,14.3,13.2,24.9,25.2,32.3c6.5,4,15.1,2.1,19-4.4c9.8-16.2,16.1-38.9,16.7-68
	C-15.5,1810.7-17.7,1808.2-20.6,1807.8z M-15.3,1755.2c1.4-9.8,10.5-16.7,20.3-15.3c9.8,1.4,16.7,10.5,15.3,20.3
	c-1.4,9.8-10.5,16.7-20.3,15.3C-9.8,1774.1-16.7,1765-15.3,1755.2z M-56.3,1825c0.1,0,0.2,0,0.3-0.1c0.1-0.1,0.1-0.2,0.1-0.3
	c-0.2-1-0.8-1.4-1.6-1.4c-4.6,0-6.6-0.4-7,1c0,0.1,0,0.2,0.1,0.3c0.1,0.1,0.2,0.2,0.3,0.2C-61.5,1824.7-58.9,1824.8-56.3,1825z
	 M64.7,1758.5c-0.2-0.3-0.8-0.1-0.7,0.3c3.1,18.4-8.4,30-25.5,39.1c-1.9,1-3,3-3,5.2c0.9,32.8,1.3,65.2-20.9,85.8
	c-1.4,1.3-3.5-0.1-3-1.9c3.5-10.9,3.3-28.7-2.5-39.1c-0.7-1.3-2.6-1.1-3,0.3c-6.1,18.7-23.6,41.6-38,45.2c-0.4,0.1-0.4,0.6,0,0.8
	c22.8,6,67.6,7.2,91.1-16.9c13.5-13.6,20.1-34.5,20.1-62.7C79.3,1790.6,74.5,1772,64.7,1758.5z"/>
<path id="mycase_1_" fill="#0070BA" d="M378.8,1764.3h-19.4c-1.2,0-2.1,0.6-2.7,1.7l-3.6,8.7l-21.7,52.5c-0.5,1.2-2.2,1.2-2.7,0
	l-25.6-61.2c-0.6-1-1.5-1.7-2.7-1.7h-19.4c-1.7,0-2.5,1-1.9,2.7l5.3,13l22.4,54.3c7.5,19.6,9.6,32.1,4,46.9l-11,26.2
	c-0.6,1.7,0.2,2.7,1.9,2.7h19.2c1.2,0,2.1-0.6,2.5-1.9l57.3-141.2C381.3,1765.4,380.4,1764.3,378.8,1764.3z M459.1,1843.7
	c-0.4-1.2-1.5-1.9-2.9-1.5l-6.9,2.1c-5.2,1.5-11,2.3-15.4,2.3c-17.7,0-26.7-11.9-26.7-32.1c0-19.6,8.5-31.4,27.1-31.4
	c3.7,0,8.7,0.6,14,2.3l7.1,1.9c1.2,0.4,2.3-0.2,2.7-1.5l4.8-15.6c0.4-1.5-0.2-2.5-1.7-2.9l-9-2.5c-6.5-1.9-12.5-2.5-17.9-2.5
	c-23,0-38.4,10-45.5,27.2c-3,7.2-4.5,15.7-4.5,25.3c0,32.5,17.5,52.9,49.4,52.9c6.5,0,13.1-1,19.4-2.7l9.2-2.7
	c1.5-0.4,2.1-1.5,1.7-2.9L459.1,1843.7z M231.9,1762.2L231.9,1762.2c-11,0.1-21.8,4.1-30.6,12.2c-1.1,1-2.7,0.9-3.7-0.3
	c-12-14.6-36-17-51.7-0.2v-6.7c0-1.6-1.3-2.9-2.9-2.9c-18.3,0-17.7,0.1-17.7,0.1c-1.3,0-2.3,1-2.3,2.3v96.4c0,1.3,1,2.3,2.3,2.3
	h18.5c1.3,0,2.3-1,2.3-2.3v-48.5c0-19.2,6.9-31.4,22.9-31.4c10.6,0,16.5,7.9,16.5,20.8v59.1c0,1.3,1,2.3,2.3,2.3h18.7
	c1.3,0,2.3-1,2.3-2.3v-48.5c0-19.2,7.1-31.4,22.9-31.4c11,0,16.5,7.9,16.5,21v58.9c0,1.3,1,2.3,2.3,2.3h18.7c1.3,0,2.3-1,2.3-2.3
	v-61.4c0-5.3-1.1-10.4-3-15C262.7,1772.2,248.5,1762.1,231.9,1762.2z M725,1823.7c5.3,0,10.6-0.7,15.7-2.3
	c13.9-4.4,20.5-12.9,20.5-26.1c0-20.6-15.2-33.1-40.2-33.1c-30.4,0-48.3,20.2-48.3,52.7c0,32.3,17.7,52.7,49.1,52.7
	c6.7,0,13.7-0.8,21.2-2.7l9.6-2.5c1.5-0.4,2.1-1.5,1.7-2.9l-4.2-15.6c-0.4-1.5-1.5-2.1-2.9-1.7c0,0-13.7,4.4-25.6,4.4
	c-13.1,0-21.4-6.9-23.7-17.9c-0.6-2.9-0.5-5-0.5-5H725z M720.6,1783.1c11.2,0,17.7,4.4,17.7,12.7c0,4.4-2.6,7.4-7.5,9.1
	c-2,0.7-4.1,0.9-6.2,0.9l-27.2,0C700.2,1790.1,708.1,1783.1,720.6,1783.1z M633.5,1807.2l-20.8-5.4c-6.5-1.9-9.4-4.8-9.4-9.6
	c0-5.6,5.6-9.2,15.2-9.2c6.2,0,14.6,0.8,20.2,2.5l9.2,2.5c1.5,0.4,2.5-0.2,2.9-1.7l4.4-15.6c0.4-1.5-0.2-2.5-1.7-2.9l-9.2-2.3
	c-6.9-1.9-16.5-3.3-25.8-3.3c-24.2,0-38.1,11.2-38.1,30c0,15,8.1,23.9,25.4,28.3l21,5.4c6.9,2.1,9.8,5.2,9.8,10.2
	c0,6.5-5.8,10.4-16,10.4c-7.7,0-18.7-1.3-26.7-3.5l-7.5-2.1c-1.2-0.4-2.3,0.2-2.7,1.5l-4.8,15.6c-0.4,1.5,0.2,2.5,1.7,2.9l8.1,2.3
	c10.2,2.9,21,4.4,31.9,4.4c24.6,0,39.2-11.9,39.2-31.4C659.7,1821.2,651.6,1811.8,633.5,1807.2z M517.2,1762.2
	c-8.5,0-15.6,1-22.7,3.1l-7.9,2.3c-1.5,0.4-2.1,1.5-1.7,2.9l4.6,15.4c0.4,1.5,1.5,2.1,2.9,1.7l7.5-2.3c5-1.5,10.2-2.1,16.2-2.1
	c15.4,0,23.5,6.9,23.5,19.6v1.2h-26c-24.6,0-37.9,12.5-37.9,32.1c0,19.6,12.9,31.4,36,31.4c16.5,0,23.9-6.5,27.9-10.3v5.1
	c0,1.6,1.3,2.9,2.9,2.9h17.1c1.6,0,2.9-1.3,2.9-2.9V1802C562.6,1776.8,545.3,1762.2,517.2,1762.2z M539.7,1823.7
	c0,15.4-9,23.5-25.4,23.5c-10,0-15.6-5-15.6-13.1c0-7.1,4.8-11.9,15-11.9h26V1823.7z"/>
<path fill="#B3B3B3" d="M391.4,1913.2v14.6h0.1c1-1.5,2.3-2.6,4-3.3c1.7-0.7,3.4-1,5.2-1c1.5,0,2.9,0.3,4.3,0.9
	c1.4,0.6,2.7,1.5,3.8,2.8c1.1,1.2,2.1,2.8,2.8,4.7c0.7,1.9,1.1,4.2,1.1,6.9c0,2.7-0.4,4.9-1.1,6.9c-0.7,1.9-1.6,3.5-2.8,4.7
	c-1.1,1.2-2.4,2.2-3.8,2.8c-1.4,0.6-2.9,0.9-4.3,0.9c-2.1,0-4-0.3-5.7-1c-1.7-0.7-3-1.8-3.8-3.4H391v3.7h-7.6v-40.1H391.4z
	 M404.3,1935.3c-0.3-1.1-0.7-2.1-1.2-3c-0.6-0.9-1.3-1.5-2.1-2c-0.8-0.5-1.9-0.8-3.1-0.8c-1.2,0-2.2,0.3-3,0.8
	c-0.9,0.5-1.6,1.2-2.1,2c-0.6,0.9-1,1.9-1.2,3c-0.3,1.1-0.4,2.3-0.4,3.5c0,1.2,0.1,2.4,0.4,3.5c0.3,1.1,0.7,2.1,1.2,3
	c0.6,0.9,1.3,1.5,2.1,2c0.9,0.5,1.9,0.8,3,0.8c1.2,0,2.2-0.3,3.1-0.8c0.8-0.5,1.5-1.2,2.1-2c0.6-0.9,1-1.9,1.2-3
	c0.3-1.1,0.4-2.3,0.4-3.5C404.7,1937.6,404.6,1936.4,404.3,1935.3z"/>
<path fill="#B3B3B3" d="M428.5,1961.9c-1.5,1-3.7,1.5-6.4,1.5c-0.8,0-1.6,0-2.4-0.1c-0.8-0.1-1.6-0.1-2.4-0.2v-6.6
	c0.7,0.1,1.5,0.1,2.3,0.2c0.8,0.1,1.6,0.1,2.4,0.1c1-0.1,1.8-0.5,2.3-1.2c0.5-0.7,0.8-1.5,0.8-2.4c0-0.6-0.1-1.2-0.3-1.8l-10.2-27.2
	h8.5l6.6,19.9h0.1l6.3-19.9h8.3l-12.1,32.6C431.2,1959.2,430,1960.9,428.5,1961.9z"/>
</svg>
