<?xml version="1.0" encoding="utf-8"?>
<!-- Generator: Adobe Illustrator 15.0.0, SVG Export Plug-In . SVG Version: 6.00 Build 0)  -->
<!DOCTYPE svg PUBLIC "-//W3C//DTD SVG 1.1//EN" "http://www.w3.org/Graphics/SVG/1.1/DTD/svg11.dtd">
<svg version="1.1" id="Layer_1" xmlns="http://www.w3.org/2000/svg" xmlns:xlink="http://www.w3.org/1999/xlink" x="0px" y="0px"
	 width="420px" height="420px" viewBox="0 0 420 420" enable-background="new 0 0 420 420" xml:space="preserve">
<g>
	<g>
		<circle opacity="0.1" fill="#FFFFFF" cx="210" cy="210" r="209.5"/>
		<circle opacity="0.1" fill="#FFFFFF" cx="209.999" cy="210" r="183.378"/>
		<circle opacity="0.1" fill="#FFFFFF" cx="210" cy="210" r="158.785"/>
		<circle opacity="0.1" fill="#FFFFFF" cx="210" cy="210" r="137.196"/>
		<circle opacity="0.1" fill="#FFFFFF" cx="210" cy="210" r="115.637"/>
	</g>
	<g>
		<ellipse opacity="0.2" fill="#2C3135" cx="210" cy="368.686" rx="189.653" ry="7.208"/>
		<g>
			<path fill="#28B3EB" d="M313.089,328.354c0,20.641,16.732,37.372,37.372,37.372s37.372-16.731,37.372-37.372H313.089z"/>
			<path fill="#2C3135" d="M350.461,367.181c-21.409,0-38.826-17.418-38.826-38.827v-1.455h77.653v1.455
				C389.288,349.763,371.87,367.181,350.461,367.181z M314.574,329.81c0.766,19.133,16.57,34.46,35.887,34.46
				s35.121-15.327,35.887-34.46H314.574z"/>
		</g>
		<path fill="#2ABDF8" d="M313.089,328.354V82.934l0.001,0c0-20.64-16.731-37.371-37.371-37.371H106.911l-0.001,282.792
			c0,20.641,16.732,37.372,37.372,37.372h206.179C329.821,365.726,313.089,348.994,313.089,328.354z"/>
		<path fill="#2C3135" d="M350.461,367.181H144.282c-21.409,0-38.827-17.418-38.827-38.827l0.001-284.247h170.263
			c21.409,0,38.826,17.418,38.826,38.827v245.42c0,19.805,16.111,35.916,35.916,35.916V367.181z M108.366,47.017v281.336
			c0,19.805,16.112,35.916,35.916,35.916H335.71c-14.115-5.818-24.075-19.726-24.075-35.916V82.934
			c0-9.594-3.735-18.613-10.52-25.396c-6.783-6.784-15.803-10.52-25.396-10.52H108.366z"/>
		<path fill="#28B3EB" d="M253.088,94.071V82.933c0-16.621,13.474-30.094,30.095-30.094c8.923,0,16.934,3.887,22.444,10.056
			c-6.472-9.626-17.463-15.975-29.908-15.975h-167.45v47.151H253.088z"/>
		<path fill="#28B3EB" d="M144.282,364.367h191.926c-8.382-3.328-15.331-9.507-19.658-17.327H113.506
			C119.833,357.421,131.261,364.367,144.282,364.367z"/>
		<g>
			<path fill="#28B3EB" d="M32.168,82.933c0-20.64,16.731-37.371,37.371-37.371h206.179c-20.639,0-37.371,16.731-37.371,37.371
				H32.168z"/>
			<path fill="#2C3135" d="M239.803,84.389H30.712v-1.456c0-21.409,17.418-38.827,38.827-38.827h206.179v2.911
				c-19.805,0-35.916,16.112-35.916,35.916V84.389z M33.652,81.478h203.267c0.577-15.564,10.359-28.817,24.049-34.461H69.54
				C50.223,47.017,34.418,62.345,33.652,81.478z"/>
		</g>
		<path fill="none" stroke="#FFFFFF" stroke-width="3" stroke-miterlimit="10" d="M268.55,239.938
			c0,13.34-10.915,24.255-24.255,24.255h-68.59c-13.339,0-24.254-10.915-24.254-24.255v-68.59c0-13.34,10.915-24.255,24.254-24.255
			h68.59c13.34,0,24.255,10.915,24.255,24.255V239.938z"/>
		<g>
			<path fill="#FFD782" stroke="#2C3135" stroke-width="3" stroke-miterlimit="10" d="M49.919,175.083v190.643h190.642
				L49.919,175.083z M77.083,240.665l97.895,97.896H77.083V240.665z"/>
			<path fill="#F9B04F" d="M54.769,186.725v177.061h177.06L54.769,186.725z M75.144,236.784L178.858,340.5H75.144V236.784z"/>
			<g>
				<rect x="63.709" y="348.186" fill="#2C3135" width="5.637" height="17.54"/>
				<rect x="90.672" y="348.186" fill="#2C3135" width="5.637" height="17.54"/>
				<rect x="117.635" y="348.186" fill="#2C3135" width="5.637" height="17.54"/>
				<rect x="144.597" y="348.186" fill="#2C3135" width="5.638" height="17.54"/>
				<rect x="171.56" y="348.186" fill="#2C3135" width="5.637" height="17.54"/>
				<rect x="198.522" y="348.186" fill="#2C3135" width="5.637" height="17.54"/>
			</g>
		</g>
		<circle fill="none" stroke="#FFFFFF" stroke-width="3" stroke-miterlimit="10" cx="210" cy="205.644" r="45.085"/>
		<g>
			<path fill="#F9B04F" d="M367.908,238.264c0-5.336-4.366-9.702-9.702-9.702h-66.619c-5.336,0-9.701,4.366-9.701,9.702v13.908
				c0,5.336,4.365,9.702,9.701,9.702h66.619c5.336,0,9.702-4.366,9.702-9.702V238.264z"/>
			<path fill="#F9B04F" d="M367.908,238.264c0-5.336-4.366-9.702-9.702-9.702h-66.619c-5.336,0-9.701,4.366-9.701,9.702v13.908
				c0,5.336,4.365,9.702,9.701,9.702h66.619c5.336,0,9.702-4.366,9.702-9.702V238.264z"/>
			<path fill="#FFD782" d="M358.206,228.562h-33.309v33.312h33.309c5.336,0,9.702-4.366,9.702-9.702v-13.908
				C367.908,232.928,363.542,228.562,358.206,228.562z"/>
			<path opacity="0.2" fill="#2C3135" d="M282.141,254.346c0.995,4.295,4.859,7.528,9.446,7.528h66.619
				c4.59,0,8.452-3.233,9.446-7.528H282.141z"/>
			<path fill="#2C3135" d="M358.206,263.329h-66.619c-6.151,0-11.157-5.007-11.157-11.157v-13.908
				c0-6.151,5.006-11.157,11.157-11.157h66.619c6.153,0,11.157,5.006,11.157,11.157v13.908
				C369.363,258.322,364.359,263.329,358.206,263.329z M291.587,230.017c-4.546,0-8.246,3.701-8.246,8.247v13.908
				c0,4.547,3.7,8.247,8.246,8.247h66.619c4.549,0,8.247-3.7,8.247-8.247v-13.908c0-4.546-3.698-8.247-8.247-8.247H291.587z"/>
			<path fill="#2C3135" d="M358.206,263.329h-34.764v-36.223h34.764c6.153,0,11.157,5.006,11.157,11.157v13.908
				C369.363,258.322,364.359,263.329,358.206,263.329z M326.354,260.419h31.853c4.549,0,8.247-3.7,8.247-8.247v-13.908
				c0-4.546-3.698-8.247-8.247-8.247h-31.853V260.419z"/>
		</g>
		
			<rect x="191.976" y="187.381" fill="none" stroke="#FFFFFF" stroke-width="3" stroke-miterlimit="10" width="36.047" height="36.047"/>
		<g>
			<path fill="#2ABDF8" d="M323.927,95.345l9.128-9.129c3.019-3.019,7.959-3.018,10.977,0l16.781,16.782
				c3.019,3.018,3.019,7.958,0,10.977l-9.128,9.128L323.927,95.345z"/>
			<path fill="#23B5E2" d="M360.812,102.998l-16.781-16.782c-1.426-1.426-3.28-2.169-5.158-2.248l8.479,8.479
				c3.019,3.019,3.019,7.958,0,10.977l-7.673,7.672l12.006,12.006l9.128-9.128C363.831,110.956,363.831,106.016,360.812,102.998z"/>
			<path fill="#2C3135" d="M351.685,124.558c-0.385,0-0.756-0.153-1.028-0.426l-27.759-27.758c-0.568-0.568-0.568-1.49,0-2.058
				l9.128-9.129c1.735-1.734,4.05-2.689,6.518-2.689c2.469,0,4.783,0.955,6.518,2.689l16.781,16.783
				c3.594,3.594,3.594,9.441,0,13.035l-9.128,9.128C352.441,124.405,352.07,124.558,351.685,124.558z M325.984,95.345l25.7,25.7
				l8.099-8.099c2.459-2.459,2.459-6.461,0-8.919l-16.78-16.782c-1.186-1.185-2.77-1.837-4.46-1.837
				c-1.691,0-3.274,0.652-4.459,1.837L325.984,95.345z"/>
			<g>
				<polygon fill="#B95228" points="235.066,184.203 247.544,186.362 248.987,198.124 261.735,200.554 262.825,211.963 
					351.685,123.103 323.927,95.345 				"/>
				<path fill="#2C3135" d="M262.825,213.418c-0.164,0-0.331-0.027-0.492-0.086c-0.53-0.19-0.903-0.669-0.957-1.23l-0.985-10.323
					l-11.677-2.226c-0.621-0.118-1.095-0.624-1.172-1.251l-1.312-10.689l-11.411-1.975c-0.536-0.093-0.977-0.476-1.14-0.995
					c-0.164-0.518-0.026-1.084,0.358-1.468l88.859-88.859c0.568-0.568,1.489-0.568,2.059,0l27.758,27.759
					c0.568,0.568,0.568,1.49,0,2.058l-88.86,88.86C263.576,213.27,263.204,213.418,262.825,213.418z M250.302,196.894l11.707,2.23
					c0.635,0.121,1.113,0.647,1.176,1.292l0.795,8.335l85.647-85.647l-25.7-25.701l-85.847,85.846l9.712,1.681
					c0.632,0.11,1.117,0.621,1.197,1.257L250.302,196.894z"/>
			</g>
			<g>
				<path fill="#FFFFFF" d="M248.987,198.124l-1.443-11.762l-12.478-2.159l-10.246,30.895c0,0-1.78,5.201,0.136,7.117
					c2,2.001,7.204,0.062,7.204,0.062l30.665-10.314l-1.09-11.409L248.987,198.124z"/>
				<path fill="#2C3135" d="M227.78,224.575L227.78,224.575c-1.674,0-2.971-0.448-3.854-1.331c-2.434-2.435-0.83-7.605-0.483-8.618
					l10.242-30.881c0.227-0.685,0.918-1.101,1.629-0.976l12.478,2.159c0.632,0.11,1.117,0.621,1.197,1.257l1.312,10.708l11.707,2.23
					c0.635,0.121,1.113,0.647,1.176,1.292l1.089,11.409c0.065,0.675-0.343,1.302-0.984,1.519l-30.665,10.314
					C232.565,223.68,230.132,224.575,227.78,224.575z M236.053,185.851l-9.852,29.706c-0.625,1.835-1.043,4.803-0.217,5.629
					c0.31,0.31,0.947,0.479,1.796,0.479c1.818,0,3.854-0.744,3.874-0.752l29.612-9.96l-0.876-9.174l-11.677-2.226
					c-0.621-0.118-1.095-0.624-1.172-1.251l-1.312-10.689L236.053,185.851z"/>
			</g>
			<g>
				<line fill="#FFFFFF" x1="330.559" y1="103.347" x2="247.544" y2="186.362"/>
				<path fill="#2C3135" d="M247.544,187.818c-0.373,0-0.745-0.142-1.029-0.426c-0.568-0.568-0.568-1.49,0-2.058l83.016-83.016
					c0.568-0.568,1.489-0.568,2.058,0s0.568,1.49,0,2.058l-83.015,83.015C248.289,187.676,247.916,187.818,247.544,187.818z"/>
			</g>
			<g>
				<line fill="#FFFFFF" x1="261.735" y1="200.554" x2="344.75" y2="117.54"/>
				<path fill="#2C3135" d="M261.735,202.009c-0.372,0-0.744-0.142-1.028-0.426c-0.568-0.568-0.568-1.489,0-2.057l83.014-83.014
					c0.568-0.569,1.489-0.569,2.058,0c0.568,0.568,0.568,1.49,0,2.058l-83.014,83.013
					C262.48,201.867,262.107,202.009,261.735,202.009z"/>
			</g>
			<g>
				<path fill="#2C3135" d="M226.594,209.748l-1.773,5.35c0,0-1.78,5.201,0.136,7.117c2,2.001,7.204,0.062,7.204,0.062l5.211-1.753
					L226.594,209.748z"/>
				<path fill="#2C3135" d="M227.78,224.575L227.78,224.575c-1.674,0-2.971-0.448-3.854-1.331c-2.434-2.435-0.83-7.605-0.483-8.618
					l1.77-5.337c0.159-0.479,0.556-0.841,1.047-0.958c0.488-0.113,1.008,0.029,1.363,0.387l10.777,10.776
					c0.356,0.356,0.502,0.87,0.387,1.361c-0.114,0.49-0.474,0.887-0.952,1.048l-5.211,1.753
					C232.565,223.68,230.132,224.575,227.78,224.575z M227.233,212.444l-1.032,3.112c-0.625,1.835-1.043,4.803-0.217,5.629
					c0.31,0.31,0.947,0.479,1.796,0.479c1.818,0,3.854-0.744,3.874-0.752l3.028-1.02L227.233,212.444z"/>
			</g>
			<polygon fill="#C67761" points="238.08,183.248 323.927,97.402 329.186,102.662 247.048,184.8 			"/>
		</g>
	</g>
</g>
</svg>
